<svg id="Layer_1" data-name="Layer 1" xmlns="http://www.w3.org/2000/svg" xmlns:xlink="http://www.w3.org/1999/xlink" viewBox="0 0 100 100"><defs><style>.cls-1{fill:url(#linear-gradient);}</style><linearGradient id="linear-gradient" x1="49.86" y1="0.2" x2="50.14" y2="99.86" gradientUnits="userSpaceOnUse"><stop offset="0" stop-color="#00ee6e"/><stop offset="1" stop-color="#0c75e6"/></linearGradient></defs><path class="cls-1" d="M50,0a50,50,0,1,0,50,50A50,50,0,0,0,50,0ZM79.56,18.05v4.8q-.12,1.92-.12,6.36V39.35q0,5.7.06,12T79.56,63q0,5.34-.12,9.24T79.2,77H76.67q-.12,1.8-.3,3.42a1.42,1.42,0,0,1-1.86,1.38,1.24,1.24,0,0,1-.84-1.8q.48-1.32,1-3H66.57a12,12,0,0,0-.24,4.2q.24,2.28.36,4.14a8.41,8.41,0,0,1-.24,3q-.36,1.14-2.16.66a1.84,1.84,0,0,1-1.5-2.28,18.38,18.38,0,0,1,.9-4.08q.72-2.16,1.32-3.9T64.89,77c-.4.72-.78,1.06-1.15,1s-.62-.38-.77-1a12.23,12.23,0,0,1-1.63-.06q-.3-.06-.18-1.38t.24-4.68q.12-3.36-.24-10.08V59.09q-1.08-.24-1.08-1.14A11.07,11.07,0,0,1,60.26,56a5.57,5.57,0,0,0,.06-1.8q-.12-.78-1.44-.66-.36,0-.54.66a1,1,0,0,1-.66.78.94.94,0,0,1-.9-.18,2.53,2.53,0,0,1-.48-.66q-.18-.36-.36-.78a1.51,1.51,0,0,0-.53-.66,2.55,2.55,0,0,0-2.4,1,3.82,3.82,0,0,0-.48,2.34,12.25,12.25,0,0,0,.6,2.76L53.85,61a2.76,2.76,0,0,1,.84,2.4,3.45,3.45,0,0,1-1,1.92,2.51,2.51,0,0,1-1.74.72q-1,0-1.32-1.32a5.56,5.56,0,0,1-.24-2.4q.12-1.44.36-2.88t.42-2.58a5.29,5.29,0,0,0,.06-1.74q-.48-1.92-.72-1.56a5.8,5.8,0,0,0-.54,1.5,20,20,0,0,1-.78,2.34q-.48,1.2-1.32,1.2a.85.85,0,0,1-.72-.72,3.34,3.34,0,0,1,0-1.26q.12-.66.24-1.38a1.51,1.51,0,0,0-.12-1.08q-.6-1-1.14-.42a3.42,3.42,0,0,1-1.14.78,1.46,1.46,0,0,1-.83,0,3.71,3.71,0,0,1-.6-.24.39.39,0,0,0-.48.12,2.75,2.75,0,0,0-.48,1.08,6.29,6.29,0,0,0,0,2.46q.24,1.5.54,2.94a10.15,10.15,0,0,1,.24,2.58,1.56,1.56,0,0,1-.9,1.5,1.44,1.44,0,0,1-1.68-.54,5.24,5.24,0,0,1-.66-2,11.43,11.43,0,0,1-.06-2.64q.12-1.44.12-2.7a7.78,7.78,0,0,0-.24-2.1q-.24-.84-.84-.84a.93.93,0,0,0-.36.84v1.26a10.93,10.93,0,0,1-.06,1.2q-.06.54-.42.54v11.1q0,3.78-.18,5.46c-.12,1.12-.4,1.74-.85,1.86a7.47,7.47,0,0,1-1.87.18v.72a4.08,4.08,0,0,1-.77,2.7,2.11,2.11,0,0,1-3.46,0,4.08,4.08,0,0,1-.77-2.7q0-.72-.06-.72H28.07a4.25,4.25,0,0,0-1.27,2.94q-.18,2-.18,4a19.22,19.22,0,0,1-.3,3.6c-.21,1-.75,1.56-1.63,1.56a1.21,1.21,0,0,1-1-1.38A12.78,12.78,0,0,1,24.26,85c.28-.88.57-1.8.85-2.76a3.6,3.6,0,0,0-.06-2.52,1.86,1.86,0,0,0-.67.18q-.42.18-.42-.42v-.12a.24.24,0,0,0-.06-.18.24.24,0,0,1-.06-.18,2.44,2.44,0,0,0-1.2.42,2.39,2.39,0,0,0-.6.78.71.71,0,0,1-1,.36.85.85,0,0,1-.6-.84q-.12-18.24-.12-32.64v-12q0-5.88.06-10.5t.18-7.44a12.67,12.67,0,0,1,.24-2.82,16,16,0,0,0,1.62-.06.73.73,0,0,1,.78.36,3.48,3.48,0,0,1,.24,1.56q0,1.14-.12,3.66V23q0,2.34.18,4.38a6.85,6.85,0,0,0,.6,2.7q.42.66,1.14-1.86a11.71,11.71,0,0,0,.36-4q-.12-2.4-.18-4.62a17.81,17.81,0,0,1,.24-3.78q.3-1.56,1.62-1.56a10.75,10.75,0,0,1,.3,2q.06,1,1.14.66a1.06,1.06,0,0,0,.9-.9,17.35,17.35,0,0,0,.3-1.74h.61q-.12,1.8-.18,4.26A30.89,30.89,0,0,0,30.57,23a7.19,7.19,0,0,0,.91,3q.66,1,2-.06a2.38,2.38,0,0,0,.84-1.62,7.9,7.9,0,0,0-.06-2.16A19.86,19.86,0,0,0,33.76,20a7.27,7.27,0,0,1-.3-1.92,7.81,7.81,0,0,1,.12-2.52,1.78,1.78,0,0,1,.78-1.14,2.6,2.6,0,0,1,1.44-.24q.9.06,2.34.06.24,0,.3,1.8t0,4.44q-.06,2.64-.12,5.76T38.26,32q0,2.64.12,4.44t.48,1.8q4.91.24,9.11.36,3.6.12,7,.06a22,22,0,0,0,4.68-.42h1.14q.3,0,.42-.48A7,7,0,0,0,61.22,36q-.06-1.26-.06-3.78V22.07q0-3.06.12-5.46t.36-2.4h1.45c.08,0,0,.2-.12.6a10.93,10.93,0,0,0-.07,2,1.42,1.42,0,0,0,.91,1.32q.72,0,1-1t.48-1a8.59,8.59,0,0,1-.6,3.48q-.72,2-1.32,4a12.22,12.22,0,0,0-.6,3.48,1.74,1.74,0,0,0,1.44,1.86q1.92.48,2.28-.9a9.4,9.4,0,0,0,.12-3.42q-.24-2-.48-4.2a5.57,5.57,0,0,1,.36-3.24q-.12.24,0-.24t.3-1.08a9.59,9.59,0,0,1,.42-1.14q.24-.54.36-.54a.67.67,0,0,1,.66.36,3.85,3.85,0,0,1,.31.78,3,3,0,0,0,.3.72q.18.3.78.06a.82.82,0,0,0,.42-.9,4.38,4.38,0,0,1,.06-1.26h1.8c.32.56.68.84,1.09.84a1.08,1.08,0,0,0,1-.72,1.93,1.93,0,0,1,.84.24,3.44,3.44,0,0,1-.06,2.28L73.91,19a10.16,10.16,0,0,0-.48,1.8q-.12.78.84,1.14a1.3,1.3,0,0,0,1.62-.66,5.73,5.73,0,0,0,.48-2.16q.06-1.26.06-2.64a3.7,3.7,0,0,1,.49-2.1,1.36,1.36,0,0,0,.42,1.38.84.84,0,0,0,1.14-.06,3.61,3.61,0,0,0,0-1.44q-.12-.12.48-.12l.24.6a.35.35,0,0,1,.24.12,1.6,1.6,0,0,1,.12.84Z"/></svg>