<svg id="Layer_1" data-name="Layer 1" xmlns="http://www.w3.org/2000/svg" xmlns:xlink="http://www.w3.org/1999/xlink" viewBox="0 0 1000 1000"><defs><style>.cls-1{fill:url(#linear-gradient);}</style><linearGradient id="linear-gradient" x1="510.63" y1="13.98" x2="513.37" y2="1010.58" gradientUnits="userSpaceOnUse"><stop offset="0" stop-color="#00ee6e"/><stop offset="1" stop-color="#0c75e6"/></linearGradient></defs><path class="cls-1" d="M512,12C235.86,12,12,235.86,12,512s223.86,500,500,500,500-223.86,500-500S788.14,12,512,12ZM807.61,192.47v48q-1.23,19.23-1.21,63.61V405.45q0,57,.6,120t.61,116.4q0,53.42-1.21,92.41T804,781.66H778.75q-1.23,18-3,34.2t-18.64,13.8q-13.22-4.78-8.41-18t9.61-30H677.71q-4.8,19.22-2.4,42t3.61,41.4q1.19,18.62-2.41,30t-21.62,6.6q-16.82-3.58-15-22.8a181.68,181.68,0,0,1,9-40.8q7.18-21.6,13.2-39t-1.2-17.4q-6,10.8-11.44,10.2c-3.61-.39-6.2-3.8-7.8-10.2-8.83,0-14.25-.19-16.25-.6s-2.61-5-1.79-13.79,1.59-24.39,2.4-46.8,0-56-2.4-100.81v-16.8q-10.82-2.39-10.8-11.4a109.57,109.57,0,0,1,1.8-19.19,55.67,55.67,0,0,0,.6-18q-1.22-7.82-14.39-6.61-3.6,0-5.39,6.61t-6.59,7.79c-4,.82-7,.21-9-1.79a24.93,24.93,0,0,1-4.8-6.6q-1.8-3.6-3.59-7.81a14.63,14.63,0,0,0-5.39-6.59q-18,0-24,10.2t-4.79,23.39a121.28,121.28,0,0,0,6,27.61c3.18,9.59,5.59,16.8,7.18,21.59q10.78,12,8.4,24t-10.19,19.21q-7.81,7.18-17.39,7.19t-13.19-13.19q-3.62-9.62-2.39-24t3.59-28.8q2.4-14.38,4.21-25.8c1.18-7.59,1.39-13.4.59-17.4q-4.8-19.2-7.2-15.6t-5.39,15a204,204,0,0,1-7.78,23.39q-4.82,12-13.19,12a8.49,8.49,0,0,1-7.21-7.2,33.72,33.72,0,0,1,0-12.59c.8-4.41,1.6-9,2.4-13.8s.4-8.41-1.19-10.81q-6-9.58-11.39-4.19a34.3,34.3,0,0,1-11.39,7.8,15.07,15.07,0,0,1-8.39,0,44,44,0,0,1-6-2.41c-1.6-.8-3.21-.39-4.8,1.2s-3.2,5.21-4.8,10.8q-2.38,9.61,0,24.6t5.41,29.4a101.17,101.17,0,0,1,2.39,25.81c-.41,7.6-3.39,12.6-9,15q-12,2.42-16.79-5.39t-6.6-19.81a113.81,113.81,0,0,1-.59-26.4q1.2-14.38,1.2-27t-2.4-21c-1.6-5.59-4.39-8.4-8.39-8.4-2.41,1.61-3.6,4.4-3.6,8.4v12.61a106.5,106.5,0,0,1-.61,12c-.4,3.6-1.79,5.39-4.18,5.39v111q0,37.82-1.82,54.6t-8.47,18.61q-6.65,1.8-18.71,1.79v7.21q0,18-7.74,27c-5.15,6-10.92,9-17.26,9s-12.11-3-17.27-9-7.73-15-7.73-27c0-4.8-.21-7.21-.61-7.21H292.67Q281.8,787.68,280,807.47t-1.81,40.2a192.12,192.12,0,0,1-3,36q-3,15.62-16.29,15.6-10.86-3.62-9.66-13.8a127.65,127.65,0,0,1,5.42-23.41q4.22-13.18,8.45-27.59t-.59-25.2a18.82,18.82,0,0,0-6.66,1.79c-2.81,1.21-4.21-.2-4.21-4.2v-1.2a2.46,2.46,0,0,0-.61-1.8,2.36,2.36,0,0,1-.6-1.8c-5.59.82-9.59,2.21-12,4.21a24,24,0,0,0-6,7.79q-3.6,6-9.59,3.61c-4-1.59-6-4.4-6-8.4q-1.22-182.4-1.2-326.41v-120q0-58.78.59-105t1.8-74.39q1.19-28.2,2.4-28.2a157.5,157.5,0,0,0,16.21-.6c3.59-.4,6.2.8,7.79,3.6s2.41,8,2.41,15.59-.41,19.81-1.2,36.59v31.82q0,23.39,1.79,43.79t6,27q4.2,6.62,11.41-18.61,4.79-15.58,3.59-39.59t-1.79-46.2q-.62-22.2,2.4-37.8t16.19-15.59a109.23,109.23,0,0,1,3,19.79c.41,6.82,4.2,9,11.41,6.6q7.18-1.2,9-9t3-17.39h6.14q-1.23,18-1.82,42.59a307.37,307.37,0,0,0,1.82,44.41q2.38,19.8,9,30t19.85-.61q7.18-6,8.4-16.19a78.73,78.73,0,0,0-.61-21.61,199.08,199.08,0,0,0-4.79-22.2,72.69,72.69,0,0,1-3-19.21c-.82-11.18-.41-19.59,1.18-25.18s4.21-9.41,7.8-11.41,8.39-2.8,14.39-2.39,13.8.59,23.39.59q2.4,0,3,18t0,44.41q-.6,26.39-1.2,57.59t-.6,57.61q0,26.4,1.19,44.39t4.81,18q49.15,2.4,91.13,3.6,36,1.21,69.55.61T608,394.06H619.4c2,0,3.39-1.59,4.21-4.79s1-9,.59-17.41-.59-21-.59-37.8V232.67q0-30.6,1.2-54.61t3.61-24h14.44q1.18,0-1.21,6a117.34,117.34,0,0,0-.61,20.41q.62,9.61,9,13.19,7.22,0,9.62-9.6t4.82-9.61q1.18,14.42-6,34.82t-13.21,40.2q-6,19.8-6,34.8t14.41,18.59q19.21,4.8,22.83-9t1.2-34.19q-2.41-20.38-4.81-42t3.61-32.4q-1.23,2.39,0-2.41c.79-3.19,1.79-6.8,3-10.8a97.48,97.48,0,0,1,4.2-11.39c1.59-3.59,2.8-5.4,3.61-5.4,3.2,0,5.41,1.2,6.61,3.59a46.28,46.28,0,0,1,3,7.8,29.82,29.82,0,0,0,3,7.2q1.81,3,7.83.59c3.21-1.59,4.61-4.57,4.21-9a42.77,42.77,0,0,1,.61-12.61h18q4.8,8.41,10.82,8.41c4,0,7.22-2.39,9.63-7.21a19.56,19.56,0,0,1,8.42,2.39q3.59,10.83-.61,22.82t-7.81,22.2a100,100,0,0,0-4.81,18c-.82,5.2,2,9,8.42,11.39q12,2.41,16.22-6.59t4.81-21.6q.62-12.6.61-26.4t4.81-21q-1.21,9.6,4.21,13.79c3.6,2.82,7.42,2.61,11.42-.61q1.19-13.17,0-14.39c-.82-.79.79-1.2,4.81-1.2l2.41,6a3.54,3.54,0,0,1,2.4,1.2c.8.82,1.21,3.61,1.21,8.41Z" transform="translate(-12 -12)"/></svg>